<svg xmlns="http://www.w3.org/2000/svg" viewBox="0 0 105 120"><defs><style>.cls-1{fill:#fff;}</style></defs><title>exchange_120</title><g id="Layer_1" data-name="Layer 1"><path class="cls-1" d="M52.52,75.34l0,0,0,0"/><path class="cls-1" d="M52.49,75.34l0,0,0,0"/><path class="cls-1" d="M52.49,75.35l0,0,0,0"/><path class="cls-1" d="M52.52,75.34l0,0,0,0"/><path class="cls-1" d="M46.14,13.56V1.67C21.71,4.75,2.82,25.33,2.82,50.27A48.23,48.23,0,0,0,10,75.59l8.76-8.64a36.59,36.59,0,0,1-4-16.68,37.44,37.44,0,0,1,31.4-36.71"/><path class="cls-1" d="M58.07,1.57V13.43a37.47,37.47,0,0,1,32.2,36.84,36.7,36.7,0,0,1-4,16.68L95,75.59a48.25,48.25,0,0,0,7.15-25.32c0-25.21-19.3-46-44.12-48.69"/><path class="cls-1" d="M79.13,76.67,52.5,102.94,25.88,76.69l-.08-.08-8.43,8.32L52.5,119.57,87.63,84.92,79.2,76.6l-.06.07"/><path class="cls-1" d="M52.5,24.78A25.69,25.69,0,0,0,26.67,50.27a25.15,25.15,0,0,0,7.65,18.1L52.5,86.31l18.22-18a25.15,25.15,0,0,0,7.61-18.06A25.69,25.69,0,0,0,52.5,24.78m0,41.74A16.26,16.26,0,1,1,69,50.27,16.37,16.37,0,0,1,52.5,66.53"/><path class="cls-1" d="M52.5,24.78A25.69,25.69,0,0,0,26.67,50.27a25.15,25.15,0,0,0,7.65,18.1L52.5,86.31l18.22-18a25.15,25.15,0,0,0,7.61-18.06A25.69,25.69,0,0,0,52.5,24.78Zm0,41.74A16.26,16.26,0,1,1,69,50.27,16.37,16.37,0,0,1,52.5,66.53Z"/></g></svg>