<svg xmlns="http://www.w3.org/2000/svg" viewBox="0 0 127 32"><defs><style>.cls-1{fill:#fff;}</style></defs><title>exchange_32</title><g id="Layer_1" data-name="Layer 1"><polygon class="cls-1" points="35.85 24.84 35.85 13.42 43.26 13.42 43.26 14.68 37.26 14.68 37.26 18.37 43.14 18.37 43.14 19.63 37.26 19.63 37.26 23.57 43.26 23.57 43.26 24.84 35.85 24.84"/><polygon class="cls-1" points="53.31 24.84 49.7 19.98 46.09 24.84 44.38 24.84 48.79 18.98 44.63 13.42 46.34 13.42 49.7 17.97 53.04 13.42 54.77 13.42 50.62 18.96 55.03 24.84 53.31 24.84"/><path class="cls-1" d="M55.59,19.13a5.59,5.59,0,0,1,5.82-5.71,5.05,5.05,0,0,1,4.29,2.18l-1.17.65a3.83,3.83,0,0,0-3.12-1.61A4.28,4.28,0,0,0,57,19.13a4.3,4.3,0,0,0,4.36,4.49A3.87,3.87,0,0,0,64.52,22l1.19.63a5.12,5.12,0,0,1-4.31,2.2,5.59,5.59,0,0,1-5.82-5.71"/><polygon class="cls-1" points="75.52 24.84 75.52 19.6 68.91 19.6 68.91 24.84 67.5 24.84 67.5 13.42 68.91 13.42 68.91 18.33 75.52 18.33 75.52 13.42 76.93 13.42 76.93 24.84 75.52 24.84"/><path class="cls-1" d="M87.65,24.73l-1-2.53H81l-1,2.53H78.41L83,13.42h1.75l4.54,11.31Zm-3.81-9.87L81.44,21h4.8Z"/><polygon class="cls-1" points="98.73 24.84 92.14 15.73 92.14 24.84 90.73 24.84 90.73 13.42 92.17 13.42 98.68 22.34 98.68 13.42 100.09 13.42 100.09 24.84 98.73 24.84"/><path class="cls-1" d="M102.28,19.12a5.58,5.58,0,0,1,5.82-5.7,5.43,5.43,0,0,1,4.39,2l-1.12.69a4.21,4.21,0,0,0-3.27-1.52,4.27,4.27,0,0,0-4.36,4.48,4.29,4.29,0,0,0,4.36,4.48,4.53,4.53,0,0,0,3.05-1.19V20.18h-3.9V19h5.29v4a5.91,5.91,0,0,1-4.44,1.92,5.6,5.6,0,0,1-5.82-5.72"/><polygon class="cls-1" points="114.82 24.84 114.82 13.42 122.23 13.42 122.23 14.68 116.23 14.68 116.23 18.37 122.11 18.37 122.11 19.63 116.23 19.63 116.23 23.57 122.23 23.57 122.23 24.84 114.82 24.84"/><path class="cls-1" d="M35.85,11.79V6.89H38a1.21,1.21,0,0,1,1.32,1.25,1.11,1.11,0,0,1-.83,1.12,1.21,1.21,0,0,1,.92,1.2A1.25,1.25,0,0,1,38,11.79Zm2.82-3.56a.76.76,0,0,0-.81-.79H36.44V9h1.42a.75.75,0,0,0,.81-.79m.09,2.17a.81.81,0,0,0-.87-.84H36.44v1.69h1.45a.79.79,0,0,0,.87-.84"/><path class="cls-1" d="M40.11,9.34a2.35,2.35,0,1,1,4.7,0,2.35,2.35,0,1,1-4.7,0m4.09,0a1.75,1.75,0,1,0-3.48,0,1.75,1.75,0,1,0,3.48,0"/><path class="cls-1" d="M45.73,9.83V6.89h.6V9.82a1.34,1.34,0,1,0,2.67,0V6.89h.59V9.83a1.93,1.93,0,1,1-3.86,0"/><polygon class="cls-1" points="54.04 11.79 51.28 7.88 51.28 11.79 50.69 11.79 50.69 6.89 51.3 6.89 54.02 10.71 54.02 6.89 54.6 6.89 54.6 11.79 54.04 11.79"/><path class="cls-1" d="M55.71,11.79V6.89h1.62a2.34,2.34,0,0,1,2.42,2.45,2.33,2.33,0,0,1-2.42,2.44Zm3.43-2.44a1.76,1.76,0,0,0-1.81-1.91h-1v3.81h1a1.77,1.77,0,0,0,1.81-1.9"/><polygon class="cls-1" points="60.59 11.79 60.59 6.89 61.18 6.89 61.18 11.24 63.38 11.24 63.38 11.79 60.59 11.79"/><polygon class="cls-1" points="64.16 11.79 64.16 6.89 67.26 6.89 67.26 7.43 64.75 7.43 64.75 9.01 67.21 9.01 67.21 9.55 64.75 9.55 64.75 11.24 67.26 11.24 67.26 11.79 64.16 11.79"/><path class="cls-1" d="M67.91,11l.35-.45a2,2,0,0,0,1.48.68c.84,0,1.11-.45,1.11-.82,0-1.22-2.8-.54-2.8-2.23,0-.78.69-1.32,1.63-1.32a2.22,2.22,0,0,1,1.67.67L71,8a1.78,1.78,0,0,0-1.37-.57c-.56,0-1,.31-1,.75,0,1.06,2.8.45,2.8,2.22,0,.68-.47,1.39-1.74,1.39A2.35,2.35,0,0,1,67.91,11"/><path class="cls-1" d="M72.06,11l.35-.45a2,2,0,0,0,1.48.68c.84,0,1.11-.45,1.11-.82,0-1.22-2.8-.54-2.8-2.23,0-.78.69-1.32,1.63-1.32a2.22,2.22,0,0,1,1.67.67L75.16,8a1.78,1.78,0,0,0-1.37-.57c-.56,0-1,.31-1,.75,0,1.06,2.8.45,2.8,2.22,0,.68-.47,1.39-1.74,1.39A2.35,2.35,0,0,1,72.06,11"/><polyline class="cls-1" points="16.27 19.75 16.27 19.75 16.27 19.75"/><polyline class="cls-1" points="16.27 19.75 16.27 19.75 16.27 19.75"/><polyline class="cls-1" points="16.27 19.75 16.27 19.75 16.27 19.75"/><polyline class="cls-1" points="16.27 19.75 16.27 19.75 16.27 19.75"/><path class="cls-1" d="M14.6,3.51V.39A12.94,12.94,0,0,0,3.22,13.16,12.67,12.67,0,0,0,5.1,19.81l2.3-2.27a9.61,9.61,0,0,1-1-4.38A9.84,9.84,0,0,1,14.6,3.51"/><path class="cls-1" d="M17.73.36V3.48a9.84,9.84,0,0,1,8.46,9.68,9.64,9.64,0,0,1-1,4.38l2.3,2.27a12.68,12.68,0,0,0,1.88-6.65A12.94,12.94,0,0,0,17.73.36"/><path class="cls-1" d="M23.27,20.09l-7,6.9-7-6.9,0,0L7,22.26l9.23,9.1,9.23-9.1-2.22-2.19,0,0"/><path class="cls-1" d="M16.27,6.46a6.75,6.75,0,0,0-6.79,6.7,6.61,6.61,0,0,0,2,4.75l4.78,4.71,4.79-4.72a6.61,6.61,0,0,0,2-4.75,6.75,6.75,0,0,0-6.79-6.7m0,11a4.27,4.27,0,1,1,4.33-4.27,4.3,4.3,0,0,1-4.33,4.27"/><path class="cls-1" d="M16.27,6.46a6.75,6.75,0,0,0-6.79,6.7,6.61,6.61,0,0,0,2,4.75l4.78,4.71,4.79-4.72a6.61,6.61,0,0,0,2-4.75A6.75,6.75,0,0,0,16.27,6.46Zm0,11a4.27,4.27,0,1,1,4.33-4.27A4.3,4.3,0,0,1,16.27,17.43Z"/></g></svg>